<?xml version="1.0" encoding="iso-8859-1"?>
<!-- Generator: Adobe Illustrator 18.1.1, SVG Export Plug-In . SVG Version: 6.00 Build 0)  -->
<svg version="1.1" id="Capa_1" xmlns="http://www.w3.org/2000/svg" xmlns:xlink="http://www.w3.org/1999/xlink" x="0px" y="0px"
	 viewBox="0 0 71.577 71.577" style="enable-background:new 0 0 71.577 71.577;" xml:space="preserve">
<g>
	<g>
		<polygon style="fill:#010002;" points="25.052,57.523 17.894,64.681 53.683,64.681 46.525,57.523 		"/>
		<path style="fill:#010002;" d="M0,6.896v46.525h71.577V6.896H0z M35.316,20.399c0.036-0.276,0.093-0.555,0.179-0.82
			c0.172-0.551,0.397-1.081,0.691-1.578c0.626-1.081,1.46-1.954,2.537-2.591c0.465-0.276,0.963-0.523,1.467-0.719
			c0.44-0.161,0.909-0.24,1.364-0.336c0.218-0.047,0.251,0,0.258,0.222c0.007,0.19,0,0.379,0,0.519
			c0.043,0.691-0.075,1.303-0.258,1.904c-0.254,0.816-0.651,1.571-1.152,2.265c-0.49,0.673-1.084,1.235-1.779,1.689
			c-0.494,0.319-1.002,0.576-1.564,0.752c-0.515,0.165-1.027,0.254-1.568,0.272c-0.136,0.004-0.175-0.057-0.19-0.19
			C35.252,21.323,35.259,20.861,35.316,20.399z M48.085,40.233c-0.379,0.673-0.82,1.313-1.267,1.943
			c-0.444,0.626-0.92,1.231-1.417,1.814c-0.512,0.583-1.099,1.084-1.782,1.46c-0.762,0.415-1.557,0.619-2.444,0.48
			c-0.648-0.104-1.224-0.376-1.818-0.623c-0.415-0.175-0.841-0.336-1.274-0.462c-0.78-0.225-1.571-0.243-2.384-0.175
			c-0.673,0.064-1.321,0.222-1.936,0.49c-0.369,0.154-0.727,0.319-1.099,0.462c-0.737,0.283-1.489,0.447-2.301,0.308
			c-0.938-0.161-1.711-0.623-2.412-1.228c-0.608-0.523-1.117-1.124-1.593-1.75c-0.716-0.938-1.356-1.925-1.904-2.967
			c-0.315-0.598-0.591-1.22-0.855-1.84c-0.204-0.472-0.376-0.948-0.537-1.432c-0.14-0.419-0.24-0.852-0.358-1.281
			c-0.075-0.297-0.157-0.594-0.215-0.895c-0.075-0.415-0.136-0.837-0.186-1.256c-0.054-0.444-0.089-0.891-0.107-1.335
			c-0.014-0.472-0.007-0.948,0.014-1.417c0.018-0.394,0.047-0.787,0.1-1.174c0.054-0.351,0.132-0.698,0.222-1.038
			c0.118-0.429,0.254-0.859,0.404-1.278c0.197-0.558,0.49-1.066,0.83-1.55c0.512-0.737,1.106-1.403,1.811-1.961
			c0.523-0.426,1.088-0.809,1.714-1.077c0.39-0.168,0.791-0.351,1.202-0.462c0.798-0.211,1.6-0.344,2.426-0.208
			c0.383,0.064,0.769,0.107,1.142,0.193c0.319,0.072,0.626,0.186,0.934,0.29c0.358,0.115,0.701,0.236,1.056,0.354
			c0.301,0.097,0.594,0.215,0.902,0.286c0.662,0.161,1.328,0.286,2.011,0.14c0.379-0.082,0.762-0.168,1.134-0.276
			c0.243-0.075,0.487-0.179,0.727-0.265c0.272-0.1,0.548-0.208,0.83-0.297c0.34-0.111,0.676-0.229,1.031-0.293
			c0.727-0.136,1.464-0.243,2.215-0.15c0.283,0.036,0.583,0.064,0.862,0.129c0.301,0.068,0.608,0.14,0.895,0.261
			c0.49,0.208,0.97,0.429,1.432,0.698c0.845,0.497,1.593,1.124,2.212,1.893c0.054,0.061,0.1,0.122,0.175,0.197
			c-0.1,0.064-0.19,0.122-0.268,0.175c-1.152,0.68-2.026,1.61-2.623,2.809c-0.243,0.494-0.408,1.013-0.54,1.553
			c-0.157,0.659-0.168,1.324-0.143,1.997c0.014,0.304,0.075,0.608,0.143,0.909c0.097,0.408,0.197,0.823,0.351,1.213
			c0.154,0.394,0.361,0.78,0.58,1.142c0.308,0.508,0.68,0.973,1.12,1.378c0.616,0.558,1.296,1.002,2.058,1.331
			c0.039,0.018,0.079,0.018,0.118,0.032c0.089,0.043,0.132,0.107,0.079,0.208C48.944,38.544,48.536,39.407,48.085,40.233z"/>
	</g>
</g>
<g>
</g>
<g>
</g>
<g>
</g>
<g>
</g>
<g>
</g>
<g>
</g>
<g>
</g>
<g>
</g>
<g>
</g>
<g>
</g>
<g>
</g>
<g>
</g>
<g>
</g>
<g>
</g>
<g>
</g>
</svg>
